<svg width="16" height="14" viewBox="0 0 16 14" fill="none" xmlns="http://www.w3.org/2000/svg">
<path d="M2.35368 2.27406C2.7907 1.64975 3.0092 1.3376 3.3334 1.16879C3.6576 1 4.03863 1 4.8007 1H7.72599H10.6513C11.4133 1 11.7944 1 12.1186 1.16879C12.4428 1.3376 12.6613 1.64975 13.0983 2.27406L13.5442 2.91111C14.1587 3.78904 14.466 4.22801 14.4515 4.72287C14.4369 5.21773 14.1043 5.63781 13.4391 6.47805L9.4995 11.4544C8.95192 12.1461 8.67809 12.492 8.35863 12.6414C7.9577 12.8289 7.49427 12.8289 7.09334 12.6414C6.77389 12.492 6.50005 12.1461 5.95247 11.4544L2.01284 6.47805C1.34766 5.63781 1.01508 5.21773 1.0005 4.72287C0.985919 4.22801 1.29319 3.78904 1.90774 2.91111L2.35368 2.27406Z" stroke="white" stroke-width="1.49349" stroke-linejoin="round"/>
<path d="M5.48572 3.61377L5.11234 4.17383C4.89089 4.50601 4.9143 4.94429 5.16989 5.25098L6.60583 6.97412" stroke="white" stroke-opacity="0.5" stroke-width="1.49349" stroke-linecap="round" stroke-linejoin="round"/>
</svg>
